# xmcd CD database file
#
# Track frame offsets:
#	150
#	19373
#	34901
#	49277
#	67281
#	86479
#	99717
#	118060
#	131925
#	147149
#	163525
#	174939
#	192123
#	209630
#	223836
#	242836
#	257008
#
# Disc length: 3643 seconds
#
# Revision: 2
# Processed by: cddbd v1.5.2PL0 Copyright (c) Steve Scherf et al.
# Submitted via: CDex 1.70beta2
#
DISCID=0b0e3911
DTITLE=Rihanna - Unknown CD for MusicBrainz and FreeDB
DYEAR=2008
DGENRE=R&B
TTITLE0=Livin A Lie (ft The Dream)
TTITLE1=Hurricane (ft Rupee)
TTITLE2=Roll It (ft J-status and Shantelle)
TTITLE3=Give Me A Try (ft Sizzla)
TTITLE4=Boom Boom (ft Cham)
TTITLE5=Should It? (ft J-status)
TTITLE6=Bring It Back
TTITLE7=Hotness (ft Shantelle)
TTITLE8=The One (ft Memphis Bleek)
TTITLE9=Hypnotized
TTITLE10=First Time (ft Fabolous)
TTITLE11=Winning Women (ft Nicole Schrezinger)
TTITLE12=Throw Your Hands Up (ft Elephant Man)
TTITLE13=Happy
TTITLE14=Coulda Been The One
TTITLE15=Who Ya Gonna Run To&
TTITLE16=Without You
EXTD=YEAR: 2008
EXTT0=
EXTT1=
EXTT2=
EXTT3=
EXTT4=
EXTT5=
EXTT6=
EXTT7=
EXTT8=
EXTT9=
EXTT10=
EXTT11=
EXTT12=
EXTT13=
EXTT14=
EXTT15=
EXTT16=
PLAYORDER=
